<svg xmlns="http://www.w3.org/2000/svg" viewBox="0 0 363.7 410.62"><defs><style>.cls-1{fill:#4e73df;}</style></defs><g id="Layer_2" data-name="Layer 2"><g id="Layer_1-2" data-name="Layer 1"><path d="M206.59,207.21c9.08-4.27,16.09-7.09,22.63-10.74,25.83-14.37,37.52-40.84,31.25-70-6.11-28.47-26.33-48.27-55.54-49.8-32.2-1.7-64.57-.39-98.69-.39V.65C165.85.47,226.62-6.2,281.44,27.54c47.07,29,60.43,74.59,57.46,126.36-2.76,48.07-26.45,82.69-70.57,103.27-10.48,4.89-17.12,4.05-24.34-5.49C232.84,236.94,220.24,223.29,206.59,207.21Z"/><path d="M0,409.58V109.77H75.58c0,26.54.93,52.49-.34,78.33-.8,16.28,3.27,28.88,15,40.42,12.13,11.94,22.53,25.64,36.71,42.07H75.67v139Z"/><path class="cls-1" d="M363.7,410.56c-33.1,0-61.09.24-89.07-.25-4.23-.07-9.65-2.39-12.41-5.53C205.44,340.25,149,275.46,88.79,206.56c35,0,65.47-.22,95.88.32,3.29.05,7.1,4,9.68,7C249.64,277.9,304.79,342.07,363.7,410.56Z"/><path class="cls-1" d="M69.54,71.49H2.59V6.11h67Z"/></g></g></svg>